<svg width="100" height="100" viewBox="0 0 100 100" fill="none" xmlns="http://www.w3.org/2000/svg">
<circle cx="50" cy="50" r="50" fill="#E0C8FF"/>
<path d="M50.9952 54.161H48.7722L47.7972 34.154H51.9702L50.9952 54.161ZM47.4462 59.894C47.4462 58.932 47.6802 58.256 48.1482 57.866C48.6162 57.476 49.1882 57.281 49.8642 57.281C50.5142 57.281 51.0732 57.476 51.5412 57.866C52.0352 58.256 52.2822 58.932 52.2822 59.894C52.2822 60.83 52.0352 61.506 51.5412 61.922C51.0732 62.338 50.5142 62.546 49.8642 62.546C49.1882 62.546 48.6162 62.338 48.1482 61.922C47.6802 61.506 47.4462 60.83 47.4462 59.894Z" fill="#1B0636"/>
<line x1="50.4069" y1="16.2906" x2="10.4069" y2="72.2906" stroke="black"/>
<line x1="10" y1="71.5" x2="87" y2="71.5" stroke="black"/>
<line x1="50.4172" y1="15.7244" x2="87.4172" y2="71.7244" stroke="black"/>
</svg>
